<mxfile host="app.diagrams.net" agent="Mozilla/5.0 (Windows NT 10.0; Win64; x64) AppleWebKit/537.36 (KHTML, like Gecko) Chrome/130.0.0.0 Safari/537.36" version="24.8.6">
  <diagram name="Страница — 1" id="92_c8350StZfMN6vfjeu">
    <mxGraphModel dx="2876" dy="1040" grid="1" gridSize="10" guides="1" tooltips="1" connect="1" arrows="1" fold="1" page="1" pageScale="1" pageWidth="827" pageHeight="1169" math="0" shadow="0">
      <root>
        <mxCell id="0" />
        <mxCell id="1" parent="0" />
        <mxCell id="KS5gCcNnhUhL9jg-HukT-1" value="&lt;p&gt;Разработать веб-приложение для поиска стажировки или практики студентам различных учебных учреждений&lt;/p&gt;" style="rounded=0;whiteSpace=wrap;html=1;" parent="1" vertex="1">
          <mxGeometry x="279" y="80" width="270" height="90" as="geometry" />
        </mxCell>
        <mxCell id="KS5gCcNnhUhL9jg-HukT-2" style="edgeStyle=orthogonalEdgeStyle;rounded=0;orthogonalLoop=1;jettySize=auto;html=1;exitX=0.5;exitY=1;exitDx=0;exitDy=0;entryX=0.5;entryY=0;entryDx=0;entryDy=0;" parent="1" source="KS5gCcNnhUhL9jg-HukT-4" target="KS5gCcNnhUhL9jg-HukT-7" edge="1">
          <mxGeometry relative="1" as="geometry" />
        </mxCell>
        <mxCell id="KS5gCcNnhUhL9jg-HukT-3" style="edgeStyle=orthogonalEdgeStyle;rounded=0;orthogonalLoop=1;jettySize=auto;html=1;exitX=0.5;exitY=1;exitDx=0;exitDy=0;" parent="1" source="KS5gCcNnhUhL9jg-HukT-4" target="KS5gCcNnhUhL9jg-HukT-10" edge="1">
          <mxGeometry relative="1" as="geometry" />
        </mxCell>
        <mxCell id="KS5gCcNnhUhL9jg-HukT-4" value="Создать базу данных" style="rounded=0;whiteSpace=wrap;html=1;" parent="1" vertex="1">
          <mxGeometry x="354" y="240" width="120" height="60" as="geometry" />
        </mxCell>
        <mxCell id="KS5gCcNnhUhL9jg-HukT-5" style="edgeStyle=orthogonalEdgeStyle;rounded=0;orthogonalLoop=1;jettySize=auto;html=1;exitX=0.5;exitY=1;exitDx=0;exitDy=0;entryX=0.5;entryY=0;entryDx=0;entryDy=0;" parent="1" source="KS5gCcNnhUhL9jg-HukT-7" target="KS5gCcNnhUhL9jg-HukT-21" edge="1">
          <mxGeometry relative="1" as="geometry" />
        </mxCell>
        <mxCell id="KS5gCcNnhUhL9jg-HukT-6" style="edgeStyle=orthogonalEdgeStyle;rounded=0;orthogonalLoop=1;jettySize=auto;html=1;exitX=0.5;exitY=1;exitDx=0;exitDy=0;entryX=0.5;entryY=0;entryDx=0;entryDy=0;" parent="1" source="KS5gCcNnhUhL9jg-HukT-7" target="KS5gCcNnhUhL9jg-HukT-22" edge="1">
          <mxGeometry relative="1" as="geometry" />
        </mxCell>
        <mxCell id="KS5gCcNnhUhL9jg-HukT-7" value="Определить архитектуру базы данных" style="rounded=0;whiteSpace=wrap;html=1;" parent="1" vertex="1">
          <mxGeometry x="190" y="370" width="120" height="60" as="geometry" />
        </mxCell>
        <mxCell id="KS5gCcNnhUhL9jg-HukT-8" style="edgeStyle=orthogonalEdgeStyle;rounded=0;orthogonalLoop=1;jettySize=auto;html=1;exitX=0.5;exitY=1;exitDx=0;exitDy=0;entryX=0.5;entryY=0;entryDx=0;entryDy=0;" parent="1" source="KS5gCcNnhUhL9jg-HukT-10" target="KS5gCcNnhUhL9jg-HukT-13" edge="1">
          <mxGeometry relative="1" as="geometry" />
        </mxCell>
        <mxCell id="KS5gCcNnhUhL9jg-HukT-9" style="edgeStyle=orthogonalEdgeStyle;rounded=0;orthogonalLoop=1;jettySize=auto;html=1;exitX=0.5;exitY=1;exitDx=0;exitDy=0;" parent="1" source="KS5gCcNnhUhL9jg-HukT-10" target="KS5gCcNnhUhL9jg-HukT-15" edge="1">
          <mxGeometry relative="1" as="geometry" />
        </mxCell>
        <mxCell id="KS5gCcNnhUhL9jg-HukT-10" value="Определить СУБД" style="rounded=0;whiteSpace=wrap;html=1;" parent="1" vertex="1">
          <mxGeometry x="524" y="370" width="120" height="60" as="geometry" />
        </mxCell>
        <mxCell id="KS5gCcNnhUhL9jg-HukT-11" style="edgeStyle=orthogonalEdgeStyle;rounded=0;orthogonalLoop=1;jettySize=auto;html=1;exitX=0.5;exitY=1;exitDx=0;exitDy=0;entryX=0.5;entryY=0;entryDx=0;entryDy=0;" parent="1" source="KS5gCcNnhUhL9jg-HukT-13" target="KS5gCcNnhUhL9jg-HukT-18" edge="1">
          <mxGeometry relative="1" as="geometry" />
        </mxCell>
        <mxCell id="KS5gCcNnhUhL9jg-HukT-12" style="edgeStyle=orthogonalEdgeStyle;rounded=0;orthogonalLoop=1;jettySize=auto;html=1;exitX=0.5;exitY=1;exitDx=0;exitDy=0;" parent="1" source="KS5gCcNnhUhL9jg-HukT-13" target="KS5gCcNnhUhL9jg-HukT-17" edge="1">
          <mxGeometry relative="1" as="geometry" />
        </mxCell>
        <mxCell id="KS5gCcNnhUhL9jg-HukT-13" value="Выбрать SQL СУБД" style="rounded=0;whiteSpace=wrap;html=1;" parent="1" vertex="1">
          <mxGeometry x="420" y="470" width="120" height="60" as="geometry" />
        </mxCell>
        <mxCell id="KS5gCcNnhUhL9jg-HukT-14" style="edgeStyle=orthogonalEdgeStyle;rounded=0;orthogonalLoop=1;jettySize=auto;html=1;exitX=0.5;exitY=1;exitDx=0;exitDy=0;" parent="1" source="KS5gCcNnhUhL9jg-HukT-15" edge="1">
          <mxGeometry relative="1" as="geometry">
            <mxPoint x="739" y="570" as="targetPoint" />
          </mxGeometry>
        </mxCell>
        <mxCell id="KS5gCcNnhUhL9jg-HukT-15" value="Выбрать noSQL СУБД" style="rounded=0;whiteSpace=wrap;html=1;" parent="1" vertex="1">
          <mxGeometry x="629" y="470" width="120" height="60" as="geometry" />
        </mxCell>
        <mxCell id="KS5gCcNnhUhL9jg-HukT-16" value="&lt;span lang=&quot;ru&quot; class=&quot;ILfuVd&quot;&gt;Berkeley DB&lt;br&gt;&lt;/span&gt;&lt;span lang=&quot;ru&quot; class=&quot;ILfuVd&quot;&gt;&lt;/span&gt;" style="ellipse;whiteSpace=wrap;html=1;aspect=fixed;" parent="1" vertex="1">
          <mxGeometry x="599" y="570" width="80" height="80" as="geometry" />
        </mxCell>
        <mxCell id="KS5gCcNnhUhL9jg-HukT-17" value="PostgreSQL" style="ellipse;whiteSpace=wrap;html=1;aspect=fixed;" parent="1" vertex="1">
          <mxGeometry x="490" y="570" width="80" height="80" as="geometry" />
        </mxCell>
        <mxCell id="KS5gCcNnhUhL9jg-HukT-18" value="MySQL" style="ellipse;whiteSpace=wrap;html=1;aspect=fixed;" parent="1" vertex="1">
          <mxGeometry x="390" y="570" width="80" height="80" as="geometry" />
        </mxCell>
        <mxCell id="KS5gCcNnhUhL9jg-HukT-19" style="edgeStyle=orthogonalEdgeStyle;rounded=0;orthogonalLoop=1;jettySize=auto;html=1;exitX=0.5;exitY=1;exitDx=0;exitDy=0;entryX=0.5;entryY=0;entryDx=0;entryDy=0;" parent="1" source="KS5gCcNnhUhL9jg-HukT-21" target="KS5gCcNnhUhL9jg-HukT-24" edge="1">
          <mxGeometry relative="1" as="geometry" />
        </mxCell>
        <mxCell id="KS5gCcNnhUhL9jg-HukT-20" style="edgeStyle=orthogonalEdgeStyle;rounded=0;orthogonalLoop=1;jettySize=auto;html=1;exitX=0.5;exitY=1;exitDx=0;exitDy=0;entryX=0.5;entryY=0;entryDx=0;entryDy=0;" parent="1" source="KS5gCcNnhUhL9jg-HukT-21" target="KS5gCcNnhUhL9jg-HukT-23" edge="1">
          <mxGeometry relative="1" as="geometry" />
        </mxCell>
        <mxCell id="KS5gCcNnhUhL9jg-HukT-21" value="Выбрать нереляционную архитектуру" style="rounded=0;whiteSpace=wrap;html=1;" parent="1" vertex="1">
          <mxGeometry x="110" y="470" width="120" height="60" as="geometry" />
        </mxCell>
        <mxCell id="KS5gCcNnhUhL9jg-HukT-22" value="Выбрать реляционную архитектуру" style="rounded=0;whiteSpace=wrap;html=1;" parent="1" vertex="1">
          <mxGeometry x="260" y="470" width="120" height="60" as="geometry" />
        </mxCell>
        <mxCell id="KS5gCcNnhUhL9jg-HukT-23" value="Сетевая" style="ellipse;whiteSpace=wrap;html=1;aspect=fixed;" parent="1" vertex="1">
          <mxGeometry x="180" y="570" width="80" height="80" as="geometry" />
        </mxCell>
        <mxCell id="KS5gCcNnhUhL9jg-HukT-24" value="Иерарическая" style="ellipse;whiteSpace=wrap;html=1;" parent="1" vertex="1">
          <mxGeometry x="80" y="570" width="90" height="80" as="geometry" />
        </mxCell>
        <mxCell id="KS5gCcNnhUhL9jg-HukT-25" style="edgeStyle=orthogonalEdgeStyle;rounded=0;orthogonalLoop=1;jettySize=auto;html=1;exitX=0.5;exitY=1;exitDx=0;exitDy=0;entryX=0.366;entryY=0.001;entryDx=0;entryDy=0;entryPerimeter=0;" parent="1" source="KS5gCcNnhUhL9jg-HukT-15" target="KS5gCcNnhUhL9jg-HukT-16" edge="1">
          <mxGeometry relative="1" as="geometry" />
        </mxCell>
        <mxCell id="KS5gCcNnhUhL9jg-HukT-26" value="" style="endArrow=classic;html=1;rounded=0;exitX=0.5;exitY=1;exitDx=0;exitDy=0;entryX=0.5;entryY=0;entryDx=0;entryDy=0;" parent="1" source="KS5gCcNnhUhL9jg-HukT-1" target="KS5gCcNnhUhL9jg-HukT-4" edge="1">
          <mxGeometry width="50" height="50" relative="1" as="geometry">
            <mxPoint x="390" y="430" as="sourcePoint" />
            <mxPoint x="440" y="380" as="targetPoint" />
          </mxGeometry>
        </mxCell>
        <mxCell id="KS5gCcNnhUhL9jg-HukT-27" value="" style="endArrow=classic;html=1;rounded=0;exitX=0.5;exitY=1;exitDx=0;exitDy=0;entryX=0.5;entryY=0;entryDx=0;entryDy=0;" parent="1" source="KS5gCcNnhUhL9jg-HukT-1" target="KS5gCcNnhUhL9jg-HukT-28" edge="1">
          <mxGeometry width="50" height="50" relative="1" as="geometry">
            <mxPoint x="410" y="170" as="sourcePoint" />
            <mxPoint x="1160" y="240" as="targetPoint" />
            <Array as="points">
              <mxPoint x="414" y="210" />
              <mxPoint x="1290" y="210" />
            </Array>
          </mxGeometry>
        </mxCell>
        <mxCell id="KS5gCcNnhUhL9jg-HukT-28" value="Спроектировать веб-приложение" style="rounded=0;whiteSpace=wrap;html=1;" parent="1" vertex="1">
          <mxGeometry x="1230" y="240" width="120" height="60" as="geometry" />
        </mxCell>
        <mxCell id="KS5gCcNnhUhL9jg-HukT-29" value="" style="endArrow=classic;html=1;rounded=0;exitX=0.5;exitY=1;exitDx=0;exitDy=0;entryX=0.5;entryY=0;entryDx=0;entryDy=0;" parent="1" source="KS5gCcNnhUhL9jg-HukT-28" target="KS5gCcNnhUhL9jg-HukT-32" edge="1">
          <mxGeometry width="50" height="50" relative="1" as="geometry">
            <mxPoint x="910" y="270" as="sourcePoint" />
            <mxPoint x="1460" y="380" as="targetPoint" />
            <Array as="points">
              <mxPoint x="1290" y="340" />
              <mxPoint x="1560" y="340" />
            </Array>
          </mxGeometry>
        </mxCell>
        <mxCell id="KS5gCcNnhUhL9jg-HukT-30" value="" style="endArrow=classic;html=1;rounded=0;exitX=0.5;exitY=1;exitDx=0;exitDy=0;entryX=0.5;entryY=0;entryDx=0;entryDy=0;" parent="1" source="KS5gCcNnhUhL9jg-HukT-1" target="KS5gCcNnhUhL9jg-HukT-31" edge="1">
          <mxGeometry width="50" height="50" relative="1" as="geometry">
            <mxPoint x="420" y="170" as="sourcePoint" />
            <mxPoint x="-220" y="250" as="targetPoint" />
            <Array as="points">
              <mxPoint x="414" y="210" />
              <mxPoint x="-260" y="210" />
            </Array>
          </mxGeometry>
        </mxCell>
        <mxCell id="KS5gCcNnhUhL9jg-HukT-31" value="Анализ&amp;nbsp;&amp;nbsp;" style="rounded=0;whiteSpace=wrap;html=1;" parent="1" vertex="1">
          <mxGeometry x="-320" y="240" width="120" height="60" as="geometry" />
        </mxCell>
        <mxCell id="KS5gCcNnhUhL9jg-HukT-32" value="Разработка функционала" style="rounded=0;whiteSpace=wrap;html=1;" parent="1" vertex="1">
          <mxGeometry x="1500" y="370" width="120" height="60" as="geometry" />
        </mxCell>
        <mxCell id="KS5gCcNnhUhL9jg-HukT-33" style="edgeStyle=orthogonalEdgeStyle;rounded=0;orthogonalLoop=1;jettySize=auto;html=1;exitX=0.5;exitY=1;exitDx=0;exitDy=0;entryX=0.5;entryY=0;entryDx=0;entryDy=0;" parent="1" source="KS5gCcNnhUhL9jg-HukT-35" target="KS5gCcNnhUhL9jg-HukT-38" edge="1">
          <mxGeometry relative="1" as="geometry" />
        </mxCell>
        <mxCell id="KS5gCcNnhUhL9jg-HukT-34" style="edgeStyle=orthogonalEdgeStyle;rounded=0;orthogonalLoop=1;jettySize=auto;html=1;exitX=0.5;exitY=1;exitDx=0;exitDy=0;entryX=0.5;entryY=0;entryDx=0;entryDy=0;" parent="1" source="KS5gCcNnhUhL9jg-HukT-35" target="KS5gCcNnhUhL9jg-HukT-41" edge="1">
          <mxGeometry relative="1" as="geometry" />
        </mxCell>
        <mxCell id="KS5gCcNnhUhL9jg-HukT-35" value="Определить стек технологий" style="rounded=0;whiteSpace=wrap;html=1;" parent="1" vertex="1">
          <mxGeometry x="966" y="370" width="120" height="60" as="geometry" />
        </mxCell>
        <mxCell id="KS5gCcNnhUhL9jg-HukT-36" style="edgeStyle=orthogonalEdgeStyle;rounded=0;orthogonalLoop=1;jettySize=auto;html=1;exitX=0.5;exitY=1;exitDx=0;exitDy=0;entryX=0.5;entryY=0;entryDx=0;entryDy=0;" parent="1" source="KS5gCcNnhUhL9jg-HukT-38" target="KS5gCcNnhUhL9jg-HukT-42" edge="1">
          <mxGeometry relative="1" as="geometry" />
        </mxCell>
        <mxCell id="KS5gCcNnhUhL9jg-HukT-37" style="edgeStyle=orthogonalEdgeStyle;rounded=0;orthogonalLoop=1;jettySize=auto;html=1;exitX=0.5;exitY=1;exitDx=0;exitDy=0;entryX=0.5;entryY=0;entryDx=0;entryDy=0;" parent="1" source="KS5gCcNnhUhL9jg-HukT-38" target="KS5gCcNnhUhL9jg-HukT-43" edge="1">
          <mxGeometry relative="1" as="geometry">
            <mxPoint x="971.0000000000009" y="580" as="targetPoint" />
          </mxGeometry>
        </mxCell>
        <mxCell id="KS5gCcNnhUhL9jg-HukT-38" value="Выбрать frontend-технологии" style="rounded=0;whiteSpace=wrap;html=1;" parent="1" vertex="1">
          <mxGeometry x="866" y="480" width="120" height="60" as="geometry" />
        </mxCell>
        <mxCell id="KS5gCcNnhUhL9jg-HukT-39" style="edgeStyle=orthogonalEdgeStyle;rounded=0;orthogonalLoop=1;jettySize=auto;html=1;exitX=0.5;exitY=1;exitDx=0;exitDy=0;entryX=0.5;entryY=0;entryDx=0;entryDy=0;" parent="1" source="KS5gCcNnhUhL9jg-HukT-41" target="KS5gCcNnhUhL9jg-HukT-44" edge="1">
          <mxGeometry relative="1" as="geometry" />
        </mxCell>
        <mxCell id="KS5gCcNnhUhL9jg-HukT-40" style="edgeStyle=orthogonalEdgeStyle;rounded=0;orthogonalLoop=1;jettySize=auto;html=1;exitX=0.5;exitY=1;exitDx=0;exitDy=0;entryX=0.5;entryY=0;entryDx=0;entryDy=0;" parent="1" source="KS5gCcNnhUhL9jg-HukT-41" target="KS5gCcNnhUhL9jg-HukT-45" edge="1">
          <mxGeometry relative="1" as="geometry" />
        </mxCell>
        <mxCell id="KS5gCcNnhUhL9jg-HukT-41" value="Выбрать backend-технологии" style="rounded=0;whiteSpace=wrap;html=1;" parent="1" vertex="1">
          <mxGeometry x="1056" y="480" width="120" height="60" as="geometry" />
        </mxCell>
        <mxCell id="KS5gCcNnhUhL9jg-HukT-42" value="HTML+CSS и JS" style="ellipse;whiteSpace=wrap;html=1;" parent="1" vertex="1">
          <mxGeometry x="840" y="580" width="80" height="80" as="geometry" />
        </mxCell>
        <mxCell id="KS5gCcNnhUhL9jg-HukT-43" value="HTML+CSS и PHP" style="ellipse;whiteSpace=wrap;html=1;" parent="1" vertex="1">
          <mxGeometry x="932" y="580" width="80" height="80" as="geometry" />
        </mxCell>
        <mxCell id="KS5gCcNnhUhL9jg-HukT-44" value="Java+Spring" style="ellipse;whiteSpace=wrap;html=1;" parent="1" vertex="1">
          <mxGeometry x="1026" y="580" width="80" height="80" as="geometry" />
        </mxCell>
        <mxCell id="KS5gCcNnhUhL9jg-HukT-45" value="Python+Go" style="ellipse;whiteSpace=wrap;html=1;" parent="1" vertex="1">
          <mxGeometry x="1116" y="580" width="90" height="80" as="geometry" />
        </mxCell>
        <mxCell id="KS5gCcNnhUhL9jg-HukT-46" value="" style="endArrow=classic;html=1;rounded=0;exitX=0.5;exitY=1;exitDx=0;exitDy=0;entryX=0.5;entryY=0;entryDx=0;entryDy=0;" parent="1" source="KS5gCcNnhUhL9jg-HukT-28" target="KS5gCcNnhUhL9jg-HukT-35" edge="1">
          <mxGeometry width="50" height="50" relative="1" as="geometry">
            <mxPoint x="1290" y="370" as="sourcePoint" />
            <mxPoint x="1340" y="320" as="targetPoint" />
            <Array as="points">
              <mxPoint x="1290" y="340" />
              <mxPoint x="1026" y="340" />
            </Array>
          </mxGeometry>
        </mxCell>
        <mxCell id="KS5gCcNnhUhL9jg-HukT-47" value="Поиск стажировок по критериям" style="rounded=0;whiteSpace=wrap;html=1;" parent="1" vertex="1">
          <mxGeometry x="1320" y="480" width="120" height="60" as="geometry" />
        </mxCell>
        <mxCell id="KS5gCcNnhUhL9jg-HukT-48" value="Кабинет студента" style="rounded=0;whiteSpace=wrap;html=1;" parent="1" vertex="1">
          <mxGeometry x="1500" y="480" width="120" height="60" as="geometry" />
        </mxCell>
        <mxCell id="KS5gCcNnhUhL9jg-HukT-49" value="Размещение вакансий" style="rounded=0;whiteSpace=wrap;html=1;" parent="1" vertex="1">
          <mxGeometry x="1670" y="480" width="120" height="60" as="geometry" />
        </mxCell>
        <mxCell id="KS5gCcNnhUhL9jg-HukT-50" value="" style="endArrow=classic;html=1;rounded=0;exitX=0.5;exitY=1;exitDx=0;exitDy=0;entryX=0.5;entryY=0;entryDx=0;entryDy=0;" parent="1" source="KS5gCcNnhUhL9jg-HukT-32" target="KS5gCcNnhUhL9jg-HukT-47" edge="1">
          <mxGeometry width="50" height="50" relative="1" as="geometry">
            <mxPoint x="1350" y="470" as="sourcePoint" />
            <mxPoint x="1400" y="420" as="targetPoint" />
            <Array as="points">
              <mxPoint x="1560" y="450" />
              <mxPoint x="1380" y="450" />
            </Array>
          </mxGeometry>
        </mxCell>
        <mxCell id="KS5gCcNnhUhL9jg-HukT-51" value="" style="endArrow=classic;html=1;rounded=0;entryX=0.5;entryY=0;entryDx=0;entryDy=0;exitX=0.5;exitY=1;exitDx=0;exitDy=0;" parent="1" source="KS5gCcNnhUhL9jg-HukT-32" target="KS5gCcNnhUhL9jg-HukT-49" edge="1">
          <mxGeometry width="50" height="50" relative="1" as="geometry">
            <mxPoint x="1350" y="470" as="sourcePoint" />
            <mxPoint x="1400" y="420" as="targetPoint" />
            <Array as="points">
              <mxPoint x="1560" y="450" />
              <mxPoint x="1730" y="450" />
            </Array>
          </mxGeometry>
        </mxCell>
        <mxCell id="KS5gCcNnhUhL9jg-HukT-52" value="" style="endArrow=classic;html=1;rounded=0;entryX=0.5;entryY=0;entryDx=0;entryDy=0;exitX=0.5;exitY=1;exitDx=0;exitDy=0;" parent="1" source="KS5gCcNnhUhL9jg-HukT-32" target="KS5gCcNnhUhL9jg-HukT-48" edge="1">
          <mxGeometry width="50" height="50" relative="1" as="geometry">
            <mxPoint x="1500" y="430" as="sourcePoint" />
            <mxPoint x="1400" y="420" as="targetPoint" />
            <Array as="points">
              <mxPoint x="1560" y="450" />
            </Array>
          </mxGeometry>
        </mxCell>
        <mxCell id="KS5gCcNnhUhL9jg-HukT-53" style="edgeStyle=orthogonalEdgeStyle;rounded=0;orthogonalLoop=1;jettySize=auto;html=1;exitX=0.5;exitY=1;exitDx=0;exitDy=0;" parent="1" source="KS5gCcNnhUhL9jg-HukT-55" target="KS5gCcNnhUhL9jg-HukT-59" edge="1">
          <mxGeometry relative="1" as="geometry" />
        </mxCell>
        <mxCell id="KS5gCcNnhUhL9jg-HukT-54" style="edgeStyle=orthogonalEdgeStyle;rounded=0;orthogonalLoop=1;jettySize=auto;html=1;exitX=0.5;exitY=1;exitDx=0;exitDy=0;" parent="1" source="KS5gCcNnhUhL9jg-HukT-55" target="KS5gCcNnhUhL9jg-HukT-60" edge="1">
          <mxGeometry relative="1" as="geometry" />
        </mxCell>
        <mxCell id="KS5gCcNnhUhL9jg-HukT-55" value="Спроектировать систему регистрации" style="rounded=0;whiteSpace=wrap;html=1;" parent="1" vertex="1">
          <mxGeometry x="1920" y="370" width="120" height="60" as="geometry" />
        </mxCell>
        <mxCell id="KS5gCcNnhUhL9jg-HukT-56" style="edgeStyle=orthogonalEdgeStyle;rounded=0;orthogonalLoop=1;jettySize=auto;html=1;exitX=0.5;exitY=1;exitDx=0;exitDy=0;" parent="1" source="KS5gCcNnhUhL9jg-HukT-58" target="KS5gCcNnhUhL9jg-HukT-61" edge="1">
          <mxGeometry relative="1" as="geometry" />
        </mxCell>
        <mxCell id="KS5gCcNnhUhL9jg-HukT-57" style="edgeStyle=orthogonalEdgeStyle;rounded=0;orthogonalLoop=1;jettySize=auto;html=1;exitX=0.5;exitY=1;exitDx=0;exitDy=0;" parent="1" source="KS5gCcNnhUhL9jg-HukT-58" target="KS5gCcNnhUhL9jg-HukT-62" edge="1">
          <mxGeometry relative="1" as="geometry" />
        </mxCell>
        <mxCell id="KS5gCcNnhUhL9jg-HukT-58" value="Спроектировать систему авторизации" style="rounded=0;whiteSpace=wrap;html=1;" parent="1" vertex="1">
          <mxGeometry x="2250" y="370" width="120" height="60" as="geometry" />
        </mxCell>
        <mxCell id="KS5gCcNnhUhL9jg-HukT-59" value="Реализовать страницу" style="rounded=0;whiteSpace=wrap;html=1;" parent="1" vertex="1">
          <mxGeometry x="1850" y="480" width="120" height="60" as="geometry" />
        </mxCell>
        <mxCell id="KS5gCcNnhUhL9jg-HukT-60" value="Реализовать сохранение зарегистрированного пользователя" style="rounded=0;whiteSpace=wrap;html=1;" parent="1" vertex="1">
          <mxGeometry x="1990" y="480" width="120" height="60" as="geometry" />
        </mxCell>
        <mxCell id="KS5gCcNnhUhL9jg-HukT-61" value="Реализовать страницу" style="rounded=0;whiteSpace=wrap;html=1;" parent="1" vertex="1">
          <mxGeometry x="2185" y="480" width="120" height="60" as="geometry" />
        </mxCell>
        <mxCell id="KS5gCcNnhUhL9jg-HukT-62" value="Реализовать проверки авторизованного пользователя" style="rounded=0;whiteSpace=wrap;html=1;" parent="1" vertex="1">
          <mxGeometry x="2325" y="480" width="120" height="60" as="geometry" />
        </mxCell>
        <mxCell id="KS5gCcNnhUhL9jg-HukT-63" value="" style="endArrow=classic;html=1;rounded=0;exitX=0.5;exitY=1;exitDx=0;exitDy=0;entryX=0.5;entryY=0;entryDx=0;entryDy=0;" parent="1" source="KS5gCcNnhUhL9jg-HukT-28" target="KS5gCcNnhUhL9jg-HukT-55" edge="1">
          <mxGeometry width="50" height="50" relative="1" as="geometry">
            <mxPoint x="1710" y="470" as="sourcePoint" />
            <mxPoint x="1980" y="340" as="targetPoint" />
            <Array as="points">
              <mxPoint x="1290" y="340" />
              <mxPoint x="1980" y="340" />
            </Array>
          </mxGeometry>
        </mxCell>
        <mxCell id="KS5gCcNnhUhL9jg-HukT-64" value="" style="endArrow=classic;html=1;rounded=0;entryX=0.5;entryY=0;entryDx=0;entryDy=0;" parent="1" target="KS5gCcNnhUhL9jg-HukT-58" edge="1">
          <mxGeometry width="50" height="50" relative="1" as="geometry">
            <mxPoint x="1290" y="300" as="sourcePoint" />
            <mxPoint x="2310" y="340" as="targetPoint" />
            <Array as="points">
              <mxPoint x="1290" y="340" />
              <mxPoint x="2310" y="340" />
            </Array>
          </mxGeometry>
        </mxCell>
        <mxCell id="KS5gCcNnhUhL9jg-HukT-65" value="Oracle noSQL Database" style="ellipse;whiteSpace=wrap;html=1;aspect=fixed;" parent="1" vertex="1">
          <mxGeometry x="699" y="570" width="80" height="80" as="geometry" />
        </mxCell>
        <mxCell id="KS5gCcNnhUhL9jg-HukT-66" value="" style="endArrow=classic;html=1;rounded=0;exitX=0.5;exitY=1;exitDx=0;exitDy=0;entryX=0.5;entryY=0;entryDx=0;entryDy=0;" parent="1" source="KS5gCcNnhUhL9jg-HukT-28" target="KS5gCcNnhUhL9jg-HukT-67" edge="1">
          <mxGeometry width="50" height="50" relative="1" as="geometry">
            <mxPoint x="1700" y="470" as="sourcePoint" />
            <mxPoint x="2821" y="340" as="targetPoint" />
            <Array as="points">
              <mxPoint x="1290" y="340" />
              <mxPoint x="2810" y="340" />
            </Array>
          </mxGeometry>
        </mxCell>
        <mxCell id="KS5gCcNnhUhL9jg-HukT-67" value="Интеграция с внешними источниками" style="rounded=0;whiteSpace=wrap;html=1;" parent="1" vertex="1">
          <mxGeometry x="2750" y="370" width="120" height="60" as="geometry" />
        </mxCell>
        <mxCell id="KS5gCcNnhUhL9jg-HukT-68" value="" style="endArrow=classic;html=1;rounded=0;exitX=0.5;exitY=1;exitDx=0;exitDy=0;" parent="1" source="KS5gCcNnhUhL9jg-HukT-67" edge="1">
          <mxGeometry width="50" height="50" relative="1" as="geometry">
            <mxPoint x="2290" y="470" as="sourcePoint" />
            <mxPoint x="2940" y="500" as="targetPoint" />
            <Array as="points">
              <mxPoint x="2810" y="460" />
              <mxPoint x="2940" y="460" />
            </Array>
          </mxGeometry>
        </mxCell>
        <mxCell id="KS5gCcNnhUhL9jg-HukT-69" value="API для получения актуальных вакансий" style="rounded=0;whiteSpace=wrap;html=1;" parent="1" vertex="1">
          <mxGeometry x="2880" y="500" width="120" height="60" as="geometry" />
        </mxCell>
        <mxCell id="KS5gCcNnhUhL9jg-HukT-70" value="Соц. сети для аутенфикации" style="rounded=0;whiteSpace=wrap;html=1;" parent="1" vertex="1">
          <mxGeometry x="2640" y="500" width="120" height="60" as="geometry" />
        </mxCell>
        <mxCell id="KS5gCcNnhUhL9jg-HukT-71" value="" style="endArrow=classic;html=1;rounded=0;entryX=0.5;entryY=0;entryDx=0;entryDy=0;" parent="1" target="KS5gCcNnhUhL9jg-HukT-70" edge="1">
          <mxGeometry width="50" height="50" relative="1" as="geometry">
            <mxPoint x="2810" y="430" as="sourcePoint" />
            <mxPoint x="2340" y="420" as="targetPoint" />
            <Array as="points">
              <mxPoint x="2810" y="460" />
              <mxPoint x="2700" y="460" />
            </Array>
          </mxGeometry>
        </mxCell>
        <mxCell id="KS5gCcNnhUhL9jg-HukT-72" value="" style="endArrow=classic;html=1;rounded=0;exitX=0.5;exitY=1;exitDx=0;exitDy=0;entryX=0.5;entryY=0;entryDx=0;entryDy=0;" parent="1" source="KS5gCcNnhUhL9jg-HukT-31" target="KS5gCcNnhUhL9jg-HukT-74" edge="1">
          <mxGeometry width="50" height="50" relative="1" as="geometry">
            <mxPoint x="-90" y="470" as="sourcePoint" />
            <mxPoint x="-40" y="420" as="targetPoint" />
            <Array as="points">
              <mxPoint x="-260" y="370" />
              <mxPoint x="-200" y="370" />
            </Array>
          </mxGeometry>
        </mxCell>
        <mxCell id="KS5gCcNnhUhL9jg-HukT-73" value="Определить целевую аудиторию" style="rounded=0;whiteSpace=wrap;html=1;" parent="1" vertex="1">
          <mxGeometry x="-560" y="420" width="120" height="60" as="geometry" />
        </mxCell>
        <mxCell id="KS5gCcNnhUhL9jg-HukT-74" value="Изучить конкурентов" style="rounded=0;whiteSpace=wrap;html=1;" parent="1" vertex="1">
          <mxGeometry x="-260" y="420" width="120" height="60" as="geometry" />
        </mxCell>
        <mxCell id="KS5gCcNnhUhL9jg-HukT-75" value="" style="endArrow=classic;html=1;rounded=0;entryX=0.5;entryY=0;entryDx=0;entryDy=0;" parent="1" target="KS5gCcNnhUhL9jg-HukT-73" edge="1">
          <mxGeometry width="50" height="50" relative="1" as="geometry">
            <mxPoint x="-260" y="300" as="sourcePoint" />
            <mxPoint x="-40" y="420" as="targetPoint" />
            <Array as="points">
              <mxPoint x="-260" y="370" />
              <mxPoint x="-500" y="370" />
            </Array>
          </mxGeometry>
        </mxCell>
        <mxCell id="KS5gCcNnhUhL9jg-HukT-76" value="Исследовать интересы и т.д." style="rounded=0;whiteSpace=wrap;html=1;" parent="1" vertex="1">
          <mxGeometry x="-680" y="530" width="120" height="60" as="geometry" />
        </mxCell>
        <mxCell id="KS5gCcNnhUhL9jg-HukT-77" value="Определить потребности потребителя" style="rounded=0;whiteSpace=wrap;html=1;" parent="1" vertex="1">
          <mxGeometry x="-473" y="530" width="120" height="60" as="geometry" />
        </mxCell>
        <mxCell id="KS5gCcNnhUhL9jg-HukT-78" value="Анализ функционала&amp;nbsp;" style="rounded=0;whiteSpace=wrap;html=1;" parent="1" vertex="1">
          <mxGeometry x="-310" y="530" width="120" height="60" as="geometry" />
        </mxCell>
        <mxCell id="KS5gCcNnhUhL9jg-HukT-79" value="Сильные и слабые стороны конурентова" style="rounded=0;whiteSpace=wrap;html=1;" parent="1" vertex="1">
          <mxGeometry x="-140" y="530" width="120" height="60" as="geometry" />
        </mxCell>
        <mxCell id="KS5gCcNnhUhL9jg-HukT-80" value="" style="endArrow=classic;html=1;rounded=0;exitX=0.5;exitY=1;exitDx=0;exitDy=0;entryX=0.5;entryY=0;entryDx=0;entryDy=0;" parent="1" source="KS5gCcNnhUhL9jg-HukT-74" target="KS5gCcNnhUhL9jg-HukT-79" edge="1">
          <mxGeometry width="50" height="50" relative="1" as="geometry">
            <mxPoint x="-90" y="470" as="sourcePoint" />
            <mxPoint x="-40" y="420" as="targetPoint" />
            <Array as="points">
              <mxPoint x="-200" y="510" />
              <mxPoint x="-80" y="510" />
            </Array>
          </mxGeometry>
        </mxCell>
        <mxCell id="KS5gCcNnhUhL9jg-HukT-81" value="" style="endArrow=classic;html=1;rounded=0;entryX=0.5;entryY=0;entryDx=0;entryDy=0;" parent="1" target="KS5gCcNnhUhL9jg-HukT-78" edge="1">
          <mxGeometry width="50" height="50" relative="1" as="geometry">
            <mxPoint x="-200" y="480" as="sourcePoint" />
            <mxPoint x="-40" y="420" as="targetPoint" />
            <Array as="points">
              <mxPoint x="-200" y="510" />
              <mxPoint x="-250" y="510" />
            </Array>
          </mxGeometry>
        </mxCell>
        <mxCell id="KS5gCcNnhUhL9jg-HukT-82" value="" style="endArrow=classic;html=1;rounded=0;exitX=0.5;exitY=1;exitDx=0;exitDy=0;entryX=0.5;entryY=0;entryDx=0;entryDy=0;" parent="1" source="KS5gCcNnhUhL9jg-HukT-73" target="KS5gCcNnhUhL9jg-HukT-77" edge="1">
          <mxGeometry width="50" height="50" relative="1" as="geometry">
            <mxPoint x="-90" y="470" as="sourcePoint" />
            <mxPoint x="-40" y="420" as="targetPoint" />
            <Array as="points">
              <mxPoint x="-500" y="510" />
              <mxPoint x="-413" y="510" />
            </Array>
          </mxGeometry>
        </mxCell>
        <mxCell id="KS5gCcNnhUhL9jg-HukT-83" value="" style="endArrow=classic;html=1;rounded=0;exitX=0.5;exitY=1;exitDx=0;exitDy=0;entryX=0.5;entryY=0;entryDx=0;entryDy=0;" parent="1" source="KS5gCcNnhUhL9jg-HukT-73" target="KS5gCcNnhUhL9jg-HukT-76" edge="1">
          <mxGeometry width="50" height="50" relative="1" as="geometry">
            <mxPoint x="-90" y="470" as="sourcePoint" />
            <mxPoint x="-40" y="420" as="targetPoint" />
            <Array as="points">
              <mxPoint x="-500" y="510" />
              <mxPoint x="-620" y="510" />
            </Array>
          </mxGeometry>
        </mxCell>
        <mxCell id="fKQAdaatdEkrQPmIExMK-2" value="" style="endArrow=classic;html=1;rounded=0;entryX=0.5;entryY=0;entryDx=0;entryDy=0;" parent="1" target="fKQAdaatdEkrQPmIExMK-3" edge="1">
          <mxGeometry width="50" height="50" relative="1" as="geometry">
            <mxPoint x="1290" y="210" as="sourcePoint" />
            <mxPoint x="3590" y="270" as="targetPoint" />
            <Array as="points">
              <mxPoint x="3590" y="210" />
            </Array>
          </mxGeometry>
        </mxCell>
        <mxCell id="fKQAdaatdEkrQPmIExMK-3" value="Разработка API" style="rounded=0;whiteSpace=wrap;html=1;" parent="1" vertex="1">
          <mxGeometry x="3510" y="280" width="120" height="60" as="geometry" />
        </mxCell>
      </root>
    </mxGraphModel>
  </diagram>
</mxfile>
